<svg width="181" height="35" viewBox="0 0 181 35" fill="none" xmlns="http://www.w3.org/2000/svg">
<path d="M82.9464 7.37644H79.9922C79.8543 7.37478 79.7175 7.40004 79.5903 7.45065C79.4631 7.50126 79.3481 7.57616 79.2525 7.67071C79.1517 7.76081 79.0717 7.86992 79.0177 7.99108C78.9636 8.11224 78.9368 8.24279 78.9387 8.37439V22.1837H73.6848V8.37439C73.6825 8.11041 73.5712 7.85787 73.375 7.67119C73.1787 7.48452 72.9133 7.37866 72.6358 7.37644H69.6771C69.3996 7.37866 69.1341 7.48452 68.9379 7.67119C68.7417 7.85787 68.6304 8.11041 68.6281 8.37439V22.1837H63.3742V8.37439C63.3707 8.11075 63.259 7.85884 63.0631 7.6724C62.8671 7.48596 62.6023 7.37975 62.3252 7.37644H59.3664C59.2286 7.37478 59.0918 7.40004 58.9646 7.45065C58.8373 7.50126 58.7224 7.57616 58.6268 7.67071C58.5259 7.76081 58.4459 7.86992 58.3919 7.99108C58.3379 8.11224 58.311 8.24279 58.313 8.37439V21.2625C57.5392 21.9203 56.5593 22.3175 55.5246 22.3927C55.285 22.3955 55.0515 22.3212 54.8619 22.1819C54.6722 22.0425 54.5377 21.8463 54.4801 21.625C54.4243 21.2593 54.3973 20.89 54.3994 20.5205C54.3994 20.4096 54.3994 20.3072 54.3994 20.1963C54.4263 19.3434 54.3994 18.4648 54.3994 17.6034V14.7417C54.4194 13.5945 54.2047 12.4545 53.7673 11.3853C53.3771 10.4555 52.7629 9.62577 51.9742 8.96293C51.1752 8.30099 50.2412 7.803 49.2306 7.50012C48.0707 7.15319 46.8601 6.98475 45.6443 7.00114C44.4722 6.98431 43.3055 7.15441 42.1925 7.50438C41.2794 7.79414 40.4234 8.22653 39.6597 8.78381C39.0281 9.24536 38.4877 9.80997 38.0638 10.4513C37.7244 10.9612 37.483 11.5243 37.351 12.1146C37.32 12.2199 37.3218 12.3315 37.356 12.4359C37.3902 12.5404 37.4554 12.6332 37.5437 12.7031C37.7281 12.8536 37.9643 12.9341 38.2072 12.9292H41.8339C42.053 12.9311 42.2705 12.8934 42.4749 12.8183C42.7136 12.7113 42.9318 12.5672 43.1205 12.3918C43.4344 12.1124 43.7874 11.8756 44.1695 11.6881C44.6478 11.4948 45.1655 11.4059 45.6847 11.428C46.5997 11.3983 47.5047 11.6172 48.2937 12.0592C48.993 12.4856 49.3472 13.1936 49.3472 14.1915L42.986 15.2577C41.1424 15.4951 39.3912 16.1698 37.8934 17.2195C37.2695 17.6975 36.7733 18.3091 36.4453 19.0043C36.1173 19.6995 35.9668 20.4587 36.0061 21.2199C36.0061 21.3052 36.0061 21.3819 36.033 21.4672C36.0433 22.1761 36.1955 22.8766 36.4813 23.5314C36.7993 24.2291 37.27 24.8543 37.862 25.3652C38.505 25.9105 39.2609 26.3217 40.0811 26.5722C40.3875 26.6583 40.6988 26.728 41.0135 26.7811C41.1749 26.8152 41.3228 26.8664 41.4932 26.8877C41.7487 26.9261 42.0401 26.9261 42.3135 26.9432C42.587 26.9602 42.8067 26.9944 43.0756 26.9944C44.4237 27.0424 45.7643 26.7821 46.9847 26.2352C47.6169 25.9329 48.1998 25.545 48.7151 25.0838C48.863 24.9473 49.1948 24.6573 49.4368 24.4526C49.5761 24.3336 49.7078 24.2068 49.8313 24.073C49.8717 24.1882 49.9076 24.3076 49.9524 24.4227C50.6517 26.1286 52.6421 26.7214 53.6956 26.8877C55.3392 27.1237 57.0191 26.8658 58.5012 26.1499C58.5373 26.2141 58.5809 26.2742 58.6313 26.3291C58.726 26.425 58.8407 26.5011 58.968 26.5525C59.0954 26.6039 59.2326 26.6295 59.3709 26.6276H82.9509C83.0893 26.6295 83.2265 26.6039 83.3538 26.5525C83.4812 26.5011 83.5959 26.425 83.6906 26.3291C83.79 26.2381 83.8687 26.1287 83.9219 26.0077C83.9751 25.8867 84.0017 25.7566 83.9999 25.6254V8.37439C83.9976 8.11041 83.8863 7.85787 83.6901 7.67119C83.4939 7.48452 83.2284 7.37866 82.9509 7.37644H82.9464ZM49.3248 18.4051C49.3224 18.9295 49.2017 19.4473 48.9706 19.9234C48.7245 20.4341 48.3669 20.8892 47.9216 21.2583C47.413 21.6742 46.8258 21.9941 46.1912 22.2008C45.4324 22.4467 44.6348 22.5664 43.8332 22.5547C43.1581 22.5694 42.4878 22.4428 41.8697 22.1837C41.6229 22.0977 41.41 21.9414 41.26 21.7361C41.11 21.5308 41.0302 21.2865 41.0314 21.0365C41.0236 20.7736 41.0836 20.5128 41.2063 20.2771C41.329 20.0414 41.5106 19.8379 41.7352 19.6846C42.4315 19.2724 43.2156 19.0131 44.0305 18.9254L49.3248 18.0384V18.4051Z" fill="white"/>
<path d="M39.0295 29.8995C35.7448 28.7876 33.9316 27.5136 33.4669 22.8208C32.9156 17.2106 33.2254 1.08902 33.2254 1.08902C33.2259 0.945608 33.1979 0.803577 33.1431 0.671436C33.0883 0.539294 33.0079 0.419761 32.9065 0.319998C32.8094 0.217295 32.6926 0.13594 32.5633 0.0809604C32.434 0.0259808 32.295 -0.00145605 32.1548 0.000345151H28.9658C28.8234 -0.00338243 28.6817 0.0231179 28.55 0.0781553C28.4182 0.133193 28.2991 0.215559 28.2004 0.319998C28.0997 0.41999 28.0199 0.539669 27.9659 0.67183C27.9119 0.80399 27.8847 0.9459 27.886 1.08902V11.4198H15.9453V1.35771C15.9471 1.21522 15.9201 1.07387 15.866 0.942393C15.812 0.81092 15.7319 0.692117 15.6309 0.593324C15.5337 0.490436 15.4169 0.408655 15.2877 0.35292C15.1585 0.297184 15.0196 0.26865 14.8792 0.269039H11.6902C11.2665 0.269039 10.8018 0.269039 10.3553 0.269039C4.35079 0.292202 0 2.77993 0 8.83944C0 15.0055 4.82459 16.4879 7.97265 16.437C8.25134 16.4267 8.51753 16.3168 8.72435 16.1266C8.82567 16.0268 8.90614 15.9073 8.96093 15.7752C9.01573 15.643 9.04373 15.501 9.04326 15.3576V12.578C9.04356 12.436 9.01543 12.2954 8.96061 12.1648C8.90579 12.0342 8.8254 11.9163 8.72435 11.8182C8.52669 11.6154 8.25803 11.5004 7.9772 11.4986C6.61046 11.443 5.06149 11.1002 5.06149 8.83944C5.06149 6.32854 6.76081 5.83748 8.35078 5.79579C8.99315 5.79579 9.90886 5.75409 10.5968 5.79579L10.6332 27.2357C10.6583 27.4709 10.7649 27.6893 10.9339 27.8518C11.1367 28.0473 11.4062 28.1553 11.6856 28.1529H14.8747C15.1572 28.1482 15.4268 28.0319 15.6265 27.8288C15.8263 27.6257 15.9406 27.3515 15.9453 27.0643V16.4462H27.886C27.886 16.4462 27.7904 22.0795 28.2687 25.6606C29.0751 31.683 35.4623 34.8193 38.6468 35C38.7197 35 38.861 35 38.9339 35C39.2166 34.9976 39.4871 34.8819 39.6866 34.6782C39.8862 34.4744 39.9987 34.1989 39.9999 33.9113V30.9789C40.0017 30.8364 39.9747 30.695 39.9206 30.5635C39.8666 30.4321 39.7866 30.3133 39.6856 30.2145C39.4988 30.0513 39.2721 29.9424 39.0295 29.8995Z" fill="white"/>
<path d="M180.888 24.1807L179.688 22.4112C179.623 22.3223 179.537 22.2495 179.436 22.199C179.336 22.1485 179.224 22.1219 179.11 22.1213C178.844 22.114 178.581 22.1807 178.353 22.3131C177.643 22.7271 176.825 22.9414 175.993 22.9314C173.708 22.8248 168.159 16.8085 168.154 16.8085L177.206 9.00575C177.367 8.9116 177.496 8.77544 177.578 8.61348C177.619 8.50098 177.638 8.38271 177.636 8.26385C177.637 8.03767 177.548 7.8197 177.386 7.65412C177.299 7.5644 177.194 7.49325 177.077 7.44545C176.959 7.39765 176.833 7.3743 176.705 7.37697H173.01C172.695 7.36909 172.385 7.44595 172.114 7.59869C171.904 7.72199 171.702 7.85725 171.509 8.00376L164.347 14.2247V8.37471C164.345 8.11078 164.234 7.8583 164.038 7.67167C163.842 7.48503 163.576 7.3792 163.299 7.37697H160.343C160.066 7.3792 159.8 7.48503 159.604 7.67167C159.408 7.8583 159.297 8.11078 159.295 8.37471V21.7588C158.695 22.1441 157.994 22.3626 157.27 22.3899C157.029 22.4 156.792 22.3285 156.601 22.188C156.41 22.0475 156.277 21.8471 156.227 21.6224C156.158 21.1493 156.134 20.6712 156.155 20.194C156.182 19.3413 156.155 18.4629 156.155 17.6016V14.7406C156.172 13.5949 155.956 12.4569 155.519 11.3892C155.131 10.4575 154.517 9.62627 153.727 8.96312C152.927 8.3037 151.995 7.80611 150.986 7.50062C149.827 7.15442 148.618 6.98602 147.403 7.00176C146.223 6.98068 145.048 7.14934 143.927 7.50062C143.014 7.78779 142.158 8.2203 141.397 8.77977C140.765 9.23873 140.225 9.80197 139.802 10.4427C139.461 10.9534 139.218 11.5179 139.085 12.1098C139.054 12.2158 139.056 12.3281 139.09 12.4332C139.124 12.5383 139.189 12.6319 139.278 12.7025C139.461 12.8515 139.696 12.9305 139.936 12.9242H143.555C143.774 12.9261 143.992 12.8885 144.196 12.8133C144.434 12.7081 144.651 12.5637 144.836 12.387C145.152 12.1085 145.507 11.8719 145.889 11.6834C146.367 11.4902 146.884 11.4013 147.403 11.4233C148.317 11.3937 149.221 11.6126 150.01 12.0544C150.708 12.4808 151.062 13.1886 151.062 14.1863L144.72 15.2224C142.876 15.4571 141.124 16.1318 139.627 17.1838C139.001 17.6592 138.502 18.2691 138.171 18.9636C137.84 19.658 137.687 20.4172 137.724 21.179C137.731 21.4648 137.759 21.7498 137.809 22.0317C137.351 22.2466 136.85 22.3658 136.34 22.3814C136.106 22.3797 135.879 22.3043 135.695 22.167C135.511 22.0297 135.38 21.8381 135.323 21.6224C135.247 21.2856 135.211 19.8444 135.202 19.4905C135.166 17.964 135.202 16.0794 135.202 14.9325C135.202 13.2909 135.202 8.37044 135.202 8.37044C135.2 8.10578 135.088 7.85266 134.891 7.66591C134.694 7.47916 134.427 7.37382 134.149 7.37271H131.39C131.007 7.3375 130.624 7.42776 130.302 7.62854C130.13 7.76318 129.986 7.92645 129.876 8.11035L124.354 17.6272L118.831 8.11461C118.721 7.93072 118.577 7.76744 118.406 7.6328C118.084 7.43202 117.7 7.34177 117.317 7.37697H114.554C114.277 7.38029 114.012 7.48647 113.816 7.67287C113.621 7.85927 113.509 8.11112 113.505 8.37471V18.9021C112.273 19.7719 110.949 20.5178 109.555 21.1278C106.89 22.2492 105.188 22.5732 102.76 22.5732C102.219 22.5738 101.68 22.4917 101.166 22.3302C100.649 22.1701 100.167 21.92 99.7459 21.5926C99.2962 21.2294 98.9316 20.7806 98.6754 20.275C98.3702 19.6583 98.1865 18.9935 98.1334 18.3137C98.0782 17.8894 98.0527 17.4621 98.0573 17.0345C98.053 16.607 98.0784 16.1797 98.1334 15.7554C98.1871 15.077 98.3707 14.4137 98.6754 13.7983C98.9316 13.2927 99.2962 12.8439 99.7459 12.4808C100.167 12.1534 100.649 11.9032 101.166 11.7431C101.68 11.5816 102.219 11.4996 102.76 11.5001C103.308 11.4913 103.855 11.5413 104.391 11.6493C105.133 11.799 105.807 12.1675 106.317 12.7025C106.548 12.9547 106.762 13.221 106.957 13.4998C107.122 13.7337 107.305 13.956 107.504 14.165C107.593 14.2691 107.706 14.3529 107.834 14.4104C107.962 14.468 108.101 14.4977 108.243 14.4976H111.199C111.482 14.4969 111.753 14.3913 111.956 14.2034C112.06 14.117 112.141 14.008 112.192 13.8855C112.242 13.763 112.261 13.6307 112.247 13.4998C112.179 12.8411 111.981 12.2003 111.665 11.611C111.249 10.8033 110.675 10.0794 109.972 9.47904C109.108 8.74889 108.114 8.17132 107.038 7.77351C105.673 7.27709 104.22 7.03954 102.76 7.07424C101.436 7.0553 100.12 7.28719 98.8904 7.75645C97.7825 8.18414 96.7724 8.81261 95.9163 9.60695C95.0829 10.3884 94.41 11.3109 93.9321 12.3273C93.4434 13.3553 93.1536 14.4588 93.0766 15.5848C93.0225 16.0891 92.9971 16.5958 93.0004 17.1028C92.9964 17.5969 93.0218 18.0909 93.0766 18.5823C93.1823 19.7026 93.4851 20.7981 93.9724 21.8228C94.4442 22.8363 95.1163 23.7541 95.9521 24.5261C96.8138 25.2894 97.816 25.895 98.9083 26.3126C99.9324 26.7122 101.026 26.9249 102.133 26.9394C103.167 26.9843 104.202 26.963 105.233 26.8754C107.536 26.5605 109.775 25.915 111.875 24.961C112.432 24.7009 112.97 24.4075 113.488 24.0826V25.6176C113.492 25.8813 113.604 26.133 113.799 26.3198C113.995 26.5067 114.259 26.6141 114.536 26.6196H117.492C117.63 26.6215 117.767 26.5959 117.894 26.5445C118.022 26.4931 118.136 26.4171 118.231 26.3211C118.33 26.2302 118.409 26.1209 118.462 25.9999C118.515 25.8789 118.542 25.7488 118.54 25.6176V16.3353L122.244 22.5519C122.392 22.7699 122.562 22.9741 122.75 23.1616C122.861 23.2688 122.995 23.3523 123.142 23.4066C123.29 23.461 123.448 23.4851 123.606 23.4772H125.084C125.242 23.4851 125.4 23.461 125.547 23.4066C125.695 23.3523 125.828 23.2688 125.939 23.1616C126.128 22.9741 126.297 22.7699 126.445 22.5519L130.136 16.3353V20.3987V20.8762C130.107 22.0926 130.325 23.3028 130.777 24.4408C131.475 26.1463 133.464 26.739 134.517 26.9053C136.256 27.1633 138.037 26.8633 139.578 26.0525L139.748 25.9417C139.86 25.8649 139.968 25.7754 140.08 25.6944C140.608 26.0699 141.194 26.3648 141.818 26.5684C142.784 26.8641 143.795 27.0081 144.81 26.9948C146.156 27.0407 147.495 26.7806 148.715 26.2359C149.354 25.9341 149.942 25.5447 150.462 25.0804C150.614 24.9439 150.946 24.654 151.188 24.4536C151.326 24.3321 151.457 24.204 151.582 24.0698C151.622 24.185 151.658 24.3044 151.703 24.4195C152.402 26.125 154.39 26.7177 155.443 26.884C156.884 27.0844 158.354 26.9136 159.702 26.3894C159.881 26.5377 160.11 26.6208 160.347 26.6239H163.304C163.58 26.6194 163.844 26.5122 164.039 26.325C164.234 26.1378 164.345 25.8855 164.347 25.6219V19.8103C164.347 19.8103 169.073 23.5369 170.564 24.9567C171.697 26.0355 173.184 26.7774 174.147 26.9138C175.876 27.1412 177.636 26.8787 179.209 26.1591C179.651 25.9312 180.073 25.6703 180.472 25.3788C180.689 25.2323 180.856 25.0275 180.951 24.7904C180.992 24.6913 181.008 24.5844 180.997 24.4784C180.986 24.3724 180.949 24.2704 180.888 24.1807ZM151.089 18.4075C151.086 18.9317 150.965 19.4492 150.735 19.9254C150.489 20.4347 150.132 20.8882 149.687 21.2557C149.178 21.6725 148.59 21.9924 147.954 22.198C147.198 22.4464 146.402 22.5662 145.602 22.5519C144.928 22.5666 144.258 22.44 143.641 22.181C143.394 22.0955 143.18 21.9394 143.03 21.734C142.88 21.5287 142.801 21.2841 142.803 21.034C142.794 20.7715 142.853 20.5109 142.975 20.2752C143.097 20.0395 143.278 19.8359 143.502 19.6824C144.199 19.2704 144.984 19.0111 145.799 18.9234L151.089 18.0365V18.4075Z" fill="white"/>
</svg>
